<?xml version="1.0" encoding="UTF-8"?>
<svg id="Layer_1" xmlns="http://www.w3.org/2000/svg" version="1.1" viewBox="0 0 1156.33 208.54">
  <!-- Generator: Adobe Illustrator 30.1.0, SVG Export Plug-In . SVG Version: 2.1.1 Build 136)  -->
  <defs>
    <style>
      .st0 {
        fill: #f0e0ca;
      }
    </style>
  </defs>
  <polygon class="st0" points="147.09 40.49 147.09 3.71 0 3.71 0 204.03 39.91 204.03 39.91 122.91 140.36 122.91 140.36 86.13 39.91 86.13 39.91 40.49 147.09 40.49"/>
  <polygon class="st0" points="237.94 167.4 237.94 121.33 341.53 121.33 341.53 84.71 237.94 84.71 237.94 40.35 346.54 40.35 346.54 3.71 198.01 3.71 198.01 204.03 347.68 204.03 347.68 167.4 237.94 167.4"/>
  <rect class="st0" x="642.4" y="3.71" width="39.93" height="200.31"/>
  <path class="st0" d="M837.71,169.41c-35.34,0-63.1-25.33-63.25-65.54,0-38.92,26.9-65.53,63.25-65.53,22.31,0,40.49,10.31,51.79,27.62l34.34-21.04c-16.31-28.03-48.93-44.92-85.85-44.92-61.67,0-105.17,43.64-105.17,103.87s43.5,103.88,105.17,103.88c36.63,0,66.83-16.31,84.57-42.35l-32.63-23.47c-12.02,17.47-30.05,27.48-52.22,27.48Z"/>
  <path class="st0" d="M1077.93,3.71h-48.66l-77.97,200.31h41.64l17.45-46.64h85.42l17.45,46.64h42.64L1077.93,3.71ZM1024.13,120.62l29.04-77.41,28.9,77.41h-57.94Z"/>
  <path class="st0" d="M555.3,2.61h-11.41c-.73,0-1.32.59-1.32,1.32v82.92c-.02.97-1.08,1.56-1.91,1.05L404.38,3.93c-.88-.44-1.32,0-1.32.88v25.88c0,9.21,5.7,19.3,14.04,24.57l161.36,95.87c.83.49,1.88-.11,1.88-1.07l-.04-119.37c0-16.67-10.53-28.08-25.01-28.08ZM430.7,203.55h10.6c.69,0,1.24-.56,1.24-1.24v-75.53c0-1.32.88-1.75,2.63-.88l132.93,82.48c1.32.44,2.19,0,2.19-1.32v-25.45c0-10.09-5.7-20.18-13.6-24.57l-161.76-95.31c-.83-.49-1.88.11-1.88,1.07v112.66c0,16.67,11.41,28.08,27.64,28.08Z"/>
</svg>